<svg width="1600" height="1000" viewBox="0 0 1600 1000" fill="none" xmlns="http://www.w3.org/2000/svg" aria-hidden="true">
  <rect width="1600" height="1000" fill="#0F1A16"/>
  <circle cx="260" cy="180" r="260" fill="#1A6B55" fill-opacity="0.5"/>
  <circle cx="1280" cy="210" r="340" fill="#D4EDE6" fill-opacity="0.18"/>
  <circle cx="1260" cy="760" r="260" fill="#F5C842" fill-opacity="0.16"/>
  <rect x="110" y="580" width="360" height="220" rx="40" fill="#1A6B55" fill-opacity="0.7"/>
  <rect x="520" y="510" width="280" height="280" rx="44" fill="#D4EDE6" fill-opacity="0.1"/>
  <rect x="910" y="600" width="470" height="170" rx="38" fill="#ffffff" fill-opacity="0.08"/>
  <path d="M240 620C240 590.235 264.235 566 294 566H350C379.765 566 404 590.235 404 620V760H240V620Z" fill="#F5C842" fill-opacity="0.18"/>
  <path d="M580 618C580 588.235 604.235 564 634 564H694C723.765 564 748 588.235 748 618V782H580V618Z" fill="#ffffff" fill-opacity="0.12"/>
  <path d="M1008 640C1008 617.909 1025.91 600 1048 600H1228C1250.09 600 1268 617.909 1268 640V740H1008V640Z" fill="#1A6B55" fill-opacity="0.78"/>
  <g stroke="#ffffff" stroke-opacity="0.2">
    <path d="M0 860H1600"/>
    <path d="M0 790H1600"/>
    <path d="M0 720H1600"/>
  </g>
</svg>
